<svg width="256" height="256" viewBox="0 0 256 256" fill="none" xmlns="http://www.w3.org/2000/svg" role="img" aria-labelledby="title desc">
  <title id="title">HireProof mark</title>
  <desc id="desc">A shield, document, and magnifying glass representing job verification.</desc>
  <defs>
    <linearGradient id="shieldGradient" x1="46" y1="20" x2="204" y2="232" gradientUnits="userSpaceOnUse">
      <stop stop-color="#0F766E"/>
      <stop offset="0.52" stop-color="#167C5C"/>
      <stop offset="1" stop-color="#111827"/>
    </linearGradient>
  </defs>
  <rect width="256" height="256" rx="56" fill="#F8FAF7"/>
  <path d="M128 21L207 50.8V111.5C207 159.7 176.2 202.3 128 222C79.8 202.3 49 159.7 49 111.5V50.8L128 21Z" fill="url(#shieldGradient)"/>
  <path d="M92 65H146.5L171 89.6V166C171 173.2 165.2 179 158 179H92C84.8 179 79 173.2 79 166V78C79 70.8 84.8 65 92 65Z" fill="#F8FAF7"/>
  <path d="M146 66V86.4C146 89.5 148.5 92 151.6 92H171" stroke="#CBD5C7" stroke-width="7" stroke-linejoin="round"/>
  <path d="M100 112H142" stroke="#111827" stroke-width="9" stroke-linecap="round"/>
  <path d="M100 136H133" stroke="#111827" stroke-width="9" stroke-linecap="round"/>
  <path d="M100 160H121" stroke="#111827" stroke-width="9" stroke-linecap="round"/>
  <circle cx="159" cy="151" r="28" fill="#E7F4EE" stroke="#167C5C" stroke-width="9"/>
  <path d="M178.5 170.5L203 195" stroke="#167C5C" stroke-width="12" stroke-linecap="round"/>
  <path d="M146 150.5L156 160L174 140.5" stroke="#167C5C" stroke-width="8" stroke-linecap="round" stroke-linejoin="round"/>
</svg>

