<svg width="960" height="660" viewBox="0 0 960 660" fill="none" xmlns="http://www.w3.org/2000/svg" role="img" aria-labelledby="title desc">
  <title id="title">HireProof agent skills network</title>
  <desc id="desc">AI agents connect through SKILL.md and MCP to HireProof investigation tools for company, reputation, salary, and local checks.</desc>
  <rect width="960" height="660" rx="0" fill="#070B10"/>
  <rect x="32" y="32" width="896" height="596" rx="0" fill="#0B1118" stroke="#233044"/>
  <path d="M158 203H376" stroke="#2FE6A6" stroke-width="2" stroke-dasharray="8 10"/>
  <path d="M584 203H802" stroke="#62A8FF" stroke-width="2" stroke-dasharray="8 10"/>
  <path d="M480 267V365" stroke="#7CFFCB" stroke-width="2" stroke-dasharray="8 10"/>
  <path d="M334 427H264" stroke="#62A8FF" stroke-width="2" stroke-dasharray="7 9"/>
  <path d="M626 427H696" stroke="#62A8FF" stroke-width="2" stroke-dasharray="7 9"/>
  <path d="M334 487H264" stroke="#2FE6A6" stroke-width="2" stroke-dasharray="7 9"/>
  <path d="M626 487H696" stroke="#2FE6A6" stroke-width="2" stroke-dasharray="7 9"/>

  <rect x="88" y="146" width="160" height="114" rx="0" fill="#101923" stroke="#2D3A4C"/>
  <text x="118" y="182" fill="#EAF4FF" font-family="Inter, Arial, sans-serif" font-size="18" font-weight="800">AI agents</text>
  <text x="118" y="211" fill="#9AAEC4" font-family="Inter, Arial, sans-serif" font-size="13" font-weight="600">Codex</text>
  <text x="118" y="232" fill="#9AAEC4" font-family="Inter, Arial, sans-serif" font-size="13" font-weight="600">Claude</text>
  <text x="178" y="211" fill="#9AAEC4" font-family="Inter, Arial, sans-serif" font-size="13" font-weight="600">Gemini</text>
  <text x="178" y="232" fill="#9AAEC4" font-family="Inter, Arial, sans-serif" font-size="13" font-weight="600">Cursor</text>

  <rect x="366" y="126" width="228" height="154" rx="0" fill="#0E1B18" stroke="#2FE6A6"/>
  <rect x="404" y="160" width="152" height="38" rx="0" fill="#143226" stroke="#2FE6A6"/>
  <text x="434" y="184" fill="#7CFFCB" font-family="Inter, Arial, sans-serif" font-size="15" font-weight="900">SKILL.md</text>
  <text x="408" y="225" fill="#EAF4FF" font-family="Inter, Arial, sans-serif" font-size="18" font-weight="900">HireProof skill</text>
  <text x="408" y="250" fill="#A9BACD" font-family="Inter, Arial, sans-serif" font-size="13" font-weight="600">Portable instructions for</text>
  <text x="408" y="270" fill="#A9BACD" font-family="Inter, Arial, sans-serif" font-size="13" font-weight="600">when and how tools run.</text>

  <rect x="712" y="146" width="160" height="114" rx="0" fill="#101923" stroke="#2D3A4C"/>
  <text x="752" y="182" fill="#EAF4FF" font-family="Inter, Arial, sans-serif" font-size="18" font-weight="800">MCP</text>
  <text x="742" y="211" fill="#9AAEC4" font-family="Inter, Arial, sans-serif" font-size="13" font-weight="600">/api/mcp</text>
  <text x="742" y="232" fill="#9AAEC4" font-family="Inter, Arial, sans-serif" font-size="13" font-weight="600">tools/call</text>

  <rect x="335" y="365" width="290" height="88" rx="0" fill="#102018" stroke="#2FE6A6"/>
  <text x="390" y="401" fill="#EAF4FF" font-family="Inter, Arial, sans-serif" font-size="20" font-weight="900">Reusable audit core</text>
  <text x="382" y="429" fill="#A9BACD" font-family="Inter, Arial, sans-serif" font-size="13" font-weight="600">Extraction, evidence, scoring, exports</text>

  <rect x="74" y="386" width="190" height="82" rx="0" fill="#111822" stroke="#263449"/>
  <text x="107" y="421" fill="#EAF4FF" font-family="Inter, Arial, sans-serif" font-size="16" font-weight="900">search_company</text>
  <text x="107" y="445" fill="#9AAEC4" font-family="Inter, Arial, sans-serif" font-size="12" font-weight="600">Company identity</text>

  <rect x="696" y="386" width="190" height="82" rx="0" fill="#111822" stroke="#263449"/>
  <text x="731" y="421" fill="#EAF4FF" font-family="Inter, Arial, sans-serif" font-size="16" font-weight="900">news_check</text>
  <text x="731" y="445" fill="#9AAEC4" font-family="Inter, Arial, sans-serif" font-size="12" font-weight="600">Reputation signals</text>

  <rect x="74" y="478" width="190" height="82" rx="0" fill="#111822" stroke="#263449"/>
  <text x="111" y="513" fill="#EAF4FF" font-family="Inter, Arial, sans-serif" font-size="16" font-weight="900">jobs_compare</text>
  <text x="111" y="537" fill="#9AAEC4" font-family="Inter, Arial, sans-serif" font-size="12" font-weight="600">Salary realism</text>

  <rect x="696" y="478" width="190" height="82" rx="0" fill="#111822" stroke="#263449"/>
  <text x="728" y="513" fill="#EAF4FF" font-family="Inter, Arial, sans-serif" font-size="16" font-weight="900">local_presence</text>
  <text x="728" y="537" fill="#9AAEC4" font-family="Inter, Arial, sans-serif" font-size="12" font-weight="600">Office footprint</text>

  <circle cx="480" cy="203" r="18" fill="#2FE6A6"/>
  <path d="M473 203L478 208L489 196" stroke="#07100C" stroke-width="3" stroke-linecap="round" stroke-linejoin="round"/>
  <circle cx="480" cy="427" r="18" fill="#62A8FF"/>
  <path d="M472 427H488M480 419V435" stroke="#07100C" stroke-width="3" stroke-linecap="round"/>

  <text x="64" y="82" fill="#EAF4FF" font-family="Inter, Arial, sans-serif" font-size="24" font-weight="900">HireProof as an agent skill layer</text>
  <text x="64" y="111" fill="#9AAEC4" font-family="Inter, Arial, sans-serif" font-size="14" font-weight="600">Plug a job-scam investigation core into AI CLIs, IDE agents, and automation systems.</text>
  <text x="64" y="606" fill="#7CFFCB" font-family="Inter, Arial, sans-serif" font-size="13" font-weight="800">No prompt wrapper. Structured tools, visible evidence, and reusable verdict logic.</text>
</svg>
