<svg width="1200" height="630" viewBox="0 0 1200 630" fill="none" xmlns="http://www.w3.org/2000/svg" role="img" aria-labelledby="title desc">
  <title id="title">HireProof Open Graph image</title>
  <desc id="desc">A branded preview showing HireProof's high-risk job-post investigation result.</desc>
  <defs>
    <linearGradient id="panel" x1="86" y1="64" x2="1078" y2="572" gradientUnits="userSpaceOnUse">
      <stop stop-color="#FFFFFF"/>
      <stop offset="1" stop-color="#EEF6EF"/>
    </linearGradient>
    <filter id="shadow" x="48" y="41" width="1104" height="560" filterUnits="userSpaceOnUse" color-interpolation-filters="sRGB">
      <feFlood flood-opacity="0" result="BackgroundImageFix"/>
      <feColorMatrix in="SourceAlpha" type="matrix" values="0 0 0 0 0 0 0 0 0 0 0 0 0 0 0 0 0 0 127 0" result="hardAlpha"/>
      <feOffset dy="16"/>
      <feGaussianBlur stdDeviation="19"/>
      <feComposite in2="hardAlpha" operator="out"/>
      <feColorMatrix type="matrix" values="0 0 0 0 0.067 0 0 0 0 0.094 0 0 0 0 0.153 0 0 0 0.16 0"/>
      <feBlend mode="normal" in2="BackgroundImageFix" result="effect1_dropShadow"/>
      <feBlend mode="normal" in="SourceGraphic" in2="effect1_dropShadow" result="shape"/>
    </filter>
  </defs>
  <rect width="1200" height="630" fill="#F8FAF7"/>
  <path d="M0 126H1200M0 252H1200M0 378H1200M0 504H1200" stroke="#D9E2D6" stroke-width="1"/>
  <path d="M120 0V630M240 0V630M360 0V630M480 0V630M600 0V630M720 0V630M840 0V630M960 0V630M1080 0V630" stroke="#D9E2D6" stroke-width="1"/>
  <g filter="url(#shadow)">
    <rect x="86" y="64" width="1028" height="484" rx="34" fill="url(#panel)" stroke="#CBD5C7"/>
  </g>
  <g transform="translate(132 112)">
    <rect width="82" height="82" rx="22" fill="#167C5C"/>
    <path d="M41 13L65 22.2V40.4C65 55 55.6 67.6 41 73.4C26.4 67.6 17 55 17 40.4V22.2L41 13Z" fill="#F8FAF7"/>
    <circle cx="49" cy="51" r="9" fill="#E7F4EE" stroke="#167C5C" stroke-width="4"/>
    <path d="M56 58L66 68" stroke="#167C5C" stroke-width="5" stroke-linecap="round"/>
  </g>
  <text x="234" y="147" fill="#111827" font-family="Inter, ui-sans-serif, system-ui, -apple-system, BlinkMacSystemFont, 'Segoe UI', sans-serif" font-size="54" font-weight="850">HireProof</text>
  <text x="236" y="188" fill="#475569" font-family="Inter, ui-sans-serif, system-ui, sans-serif" font-size="25" font-weight="550">Paste a job post. Know if it is legit before you apply.</text>
  <g transform="translate(132 250)">
    <rect width="438" height="214" rx="24" fill="#FFFFFF" stroke="#CBD5C7"/>
    <text x="28" y="46" fill="#111827" font-family="Inter, ui-sans-serif, system-ui, sans-serif" font-size="24" font-weight="800">Suspicious pitch</text>
    <rect x="28" y="70" width="382" height="15" rx="7.5" fill="#E5EDE2"/>
    <rect x="28" y="102" width="326" height="15" rx="7.5" fill="#E5EDE2"/>
    <rect x="28" y="134" width="356" height="15" rx="7.5" fill="#E5EDE2"/>
    <rect x="28" y="171" width="162" height="28" rx="14" fill="#FDE7E5"/>
    <circle cx="46" cy="185" r="5" fill="#B42318"/>
    <text x="60" y="191" fill="#7A1C14" font-family="Inter, ui-sans-serif, system-ui, sans-serif" font-size="14" font-weight="800">Telegram only</text>
  </g>
  <g transform="translate(620 250)">
    <rect width="402" height="214" rx="24" fill="#111827"/>
    <text x="30" y="48" fill="#FFFFFF" font-family="Inter, ui-sans-serif, system-ui, sans-serif" font-size="23" font-weight="800">Investigation result</text>
    <rect x="30" y="74" width="144" height="38" rx="19" fill="#FDE7E5"/>
    <circle cx="52" cy="93" r="6" fill="#B42318"/>
    <text x="68" y="100" fill="#7A1C14" font-family="Inter, ui-sans-serif, system-ui, sans-serif" font-size="16" font-weight="850">High-Risk</text>
    <text x="304" y="101" fill="#FFFFFF" font-family="Inter, ui-sans-serif, system-ui, sans-serif" font-size="52" font-weight="850">92</text>
    <text x="30" y="150" fill="#D7DED4" font-family="Inter, ui-sans-serif, system-ui, sans-serif" font-size="18" font-weight="600">3 red flags found</text>
    <text x="30" y="181" fill="#D7DED4" font-family="Inter, ui-sans-serif, system-ui, sans-serif" font-size="18" font-weight="600">4 evidence links checked</text>
  </g>
  <text x="132" y="527" fill="#167C5C" font-family="Inter, ui-sans-serif, system-ui, sans-serif" font-size="21" font-weight="800">Live evidence. Structured verdict. Safer alternatives.</text>
</svg>

